<?xml version="1.0" encoding="UTF-8" standalone="no"?>
<!-- Created with Inkscape (http://www.inkscape.org/) -->

<svg
   width="200mm"
   height="200mm"
   viewBox="0 0 200 200"
   version="1.1"
   id="svg5"
   xml:space="preserve"
   xmlns:inkscape="http://www.inkscape.org/namespaces/inkscape"
   xmlns:sodipodi="http://sodipodi.sourceforge.net/DTD/sodipodi-0.dtd"
   xmlns="http://www.w3.org/2000/svg"
   xmlns:svg="http://www.w3.org/2000/svg"><sodipodi:namedview
     id="namedview7"
     pagecolor="#ffffff"
     bordercolor="#111111"
     borderopacity="1"
     inkscape:showpageshadow="0"
     inkscape:pageopacity="0"
     inkscape:pagecheckerboard="1"
     inkscape:deskcolor="#d1d1d1"
     inkscape:document-units="mm"
     showgrid="false"
     inkscape:zoom="0.52473017"
     inkscape:cx="353.51502"
     inkscape:cy="707.98292"
     inkscape:window-width="1920"
     inkscape:window-height="991"
     inkscape:window-x="-9"
     inkscape:window-y="1341"
     inkscape:window-maximized="1"
     inkscape:current-layer="layer1" /><defs
     id="defs2" /><g
     inkscape:label="Слой 1"
     inkscape:groupmode="layer"
     id="layer1"><path
       style="fill:#373a36;stroke-width:0.380695"
       d="M 93.460273,194.51966 C 82.603208,192.25397 73.765711,184.49075 70.355109,174.22314 l -0.864764,-2.60337 -20.787729,-0.18595 -20.787733,-0.18596 -2.22826,-0.99673 c -6.107069,-2.73181 -9.600113,-8.91705 -8.455241,-14.97197 0.687473,-3.63585 2.008248,-5.58099 6.955303,-10.24325 2.500528,-2.35656 5.446058,-5.44607 6.545622,-6.86555 3.888453,-5.01983 7.383927,-11.73877 9.008666,-17.31631 1.792377,-6.15302 2.007644,-8.63625 2.011159,-23.200107 0.0045,-18.967963 0.562916,-23.965027 3.599395,-32.214475 6.771199,-18.395851 24.35054,-32.544424 44.621141,-35.912909 l 3.994305,-0.663756 v -9.921831 c 0,-9.6770582 0.0216,-9.9521603 0.8768,-11.1513399 1.23261,-1.7284574 2.63408,-2.62095 4.48837,-2.8583213 2.161317,-0.2766729 4.822047,0.9592047 6.018487,2.7955206 0.86182,1.3227357 0.89551,1.6993394 1.01216,11.3168656 0.0664,5.471723 0.26259,9.948587 0.43606,9.948587 1.39947,0 7.75624,1.336778 10.84509,2.280622 17.89929,5.469456 31.68771,18.548035 37.68544,35.745392 2.46761,7.075411 2.62992,8.646936 2.929,28.359924 0.24741,16.306108 0.3433,18.166928 1.10761,21.492908 1.57352,6.84736 4.14304,12.82158 7.87146,18.30146 2.58682,3.802 5.01365,6.52043 9.96052,11.1573 4.86759,4.56256 5.7754,6.34122 5.78953,11.34325 0.008,2.7682 -0.14012,3.46181 -1.18988,5.57866 -1.52169,3.06849 -3.94188,5.38057 -7.16528,6.84516 l -2.53297,1.1509 -20.71777,0.10822 -20.71778,0.10821 -0.8503,2.67174 c -3.07246,9.65395 -11.19334,17.20781 -21.4949,19.9941 -4.20382,1.13702 -10.487057,1.30174 -14.858347,0.38953 z m 10.293117,-11.55859 c 5.05211,-0.89987 10.66252,-4.93929 12.95328,-9.32621 l 1.05224,-2.01509 -17.4125,-0.0969 c -9.576861,-0.0532 -17.51239,-0.001 -17.634499,0.11503 -0.481501,0.45954 2.216381,4.55652 4.27491,6.49185 4.469482,4.20199 10.516632,5.94446 16.766569,4.83125 z m 66.26943,-24.04388 c 1.32254,-1.14228 0.88001,-2.14156 -2.04407,-4.61568 -3.20992,-2.71597 -8.16346,-8.26394 -10.93627,-12.24858 -2.54119,-3.65179 -6.20942,-10.85893 -7.66631,-15.06235 -2.99398,-8.63821 -3.58073,-13.84193 -3.58073,-31.756745 0,-8.018645 -0.18059,-15.35946 -0.41791,-16.987902 -1.34222,-9.209991 -6.07364,-18.244326 -13.0335,-24.88669 -14.09881,-13.455599 -35.706927,-16.658649 -53.3348,-7.906021 -9.178049,4.557102 -17.275333,12.977314 -21.108427,21.95025 -3.196808,7.483442 -3.677507,11.347797 -3.688032,29.648346 -0.0089,15.542352 -0.294943,18.909532 -2.192664,25.814872 -3.276265,11.92153 -9.676666,22.15233 -19.382327,30.98192 -1.847445,1.68069 -3.35899,3.2752 -3.35899,3.54337 0,0.26817 0.272983,0.85954 0.606629,1.31414 l 0.606628,0.82658 h 69.409066 c 64.039007,0 69.464207,-0.0477 70.121707,-0.61551 z M 11.738876,89.148727 C 8.6301827,87.129492 8.2180637,85.221045 8.9872577,76.406486 10.933561,54.102888 20.884873,32.72526 36.285349,17.764111 c 2.995322,-2.909884 3.991317,-3.652074 5.171186,-3.853475 3.418821,-0.583571 6.350987,1.105416 7.329327,4.221845 0.770634,2.454803 0.05023,4.081938 -3.338253,7.539959 -15.013201,15.32127 -23.043505,33.604308 -24.286596,55.294627 -0.255712,4.461852 -0.429261,5.461781 -1.097337,6.322478 -1.360893,1.753253 -3.180386,2.69598 -5.203334,2.69598 -1.259573,0 -2.236292,-0.26184 -3.121466,-0.836798 z m 170.318594,0.03163 c -2.44362,-1.584955 -2.84448,-2.724591 -3.1874,-9.06186 -1.11736,-20.649212 -8.94709,-38.528647 -23.52916,-53.729597 -3.76148,-3.921125 -4.08985,-4.483484 -4.08985,-7.004166 0,-4.313174 4.76045,-6.943042 8.9104,-4.922489 2.47747,1.206254 9.71003,9.294372 14.66047,16.394685 3.35558,4.812838 8.39661,14.320708 10.53385,19.86784 1.85922,4.825551 4.22406,13.800132 5.05337,19.177596 0.36278,2.352332 0.75569,6.797358 0.87314,9.877848 0.24038,6.304609 -0.10273,7.642927 -2.35149,9.171101 -1.82512,1.240305 -5.14369,1.350894 -6.87333,0.229042 z"
       id="path327" /></g></svg>
